<svg xmlns="http://www.w3.org/2000/svg" width="40" height="40" fill="none"><path d="M 25.619 2.034 C 25.645 1.998 25.697 1.989 25.735 2.015 L 28.319 3.755 C 28.356 3.78 28.365 3.83 28.339 3.867 L 24.743 8.806 C 26.491 9.344 27.682 9.923 27.682 9.923 C 27.682 9.923 24.771 14.74 19.833 14.74 C 14.896 14.74 11.387 10.251 11.387 10.251 C 11.387 10.251 12.631 9.487 14.475 8.832 L 10.531 4.31 C 10.501 4.276 10.506 4.226 10.541 4.197 L 12.957 2.247 C 12.974 2.233 12.996 2.227 13.018 2.229 C 13.041 2.23 13.061 2.241 13.075 2.257 L 18.069 7.982 C 18.497 7.935 18.932 7.909 19.372 7.909 C 20.004 7.909 20.635 7.956 21.251 8.034 Z M 26.595 14.968 C 27.913 14.063 29.907 11.7 29.907 11.7 C 29.907 11.7 35 15.582 35 23.814 C 35 32.046 26.195 37 26.195 37 C 26.195 37 21.988 32.913 20.955 27.733 C 19.923 22.552 22.483 16.8 22.483 16.8 C 22.483 16.8 25.278 15.873 26.595 14.968 Z M 16.517 16.8 C 16.517 16.8 19.077 22.552 18.045 27.733 C 17.012 32.913 12.805 37 12.805 37 C 12.805 37 4 32.046 4 23.814 C 4 15.582 9.093 11.7 9.093 11.7 C 9.093 11.7 11.087 14.063 12.405 14.968 C 13.722 15.873 16.517 16.8 16.517 16.8 Z" fill="rgb(146, 189, 45)"></path></svg>