<svg xmlns="http://www.w3.org/2000/svg" width="40" height="40" fill="none"><path d="M 24.583 20.5 C 24.583 15.348 22.3 10.816 18.847 8.2 C 19.301 8.15 19.762 8.125 20.229 8.125 C 27.19 8.125 32.833 13.768 32.833 20.729 C 32.833 27.69 27.19 33.333 20.229 33.333 C 19.585 33.334 18.943 33.285 18.306 33.188 C 22.06 30.647 24.583 25.917 24.583 20.5 Z M 20 37 C 29.113 37 36.5 29.613 36.5 20.5 C 36.5 11.387 29.113 4 20 4 C 10.887 4 3.5 11.387 3.5 20.5 C 3.5 29.613 10.887 37 20 37 Z" fill="rgb(89, 87, 97)"></path></svg>