<svg xmlns="http://www.w3.org/2000/svg" width="40" height="40" fill="none"><path d="M 20.687 20.84 C 20.446 20.88 20.206 20.924 19.967 20.973 C 18.777 21.216 5.488 24.298 5.488 24.298 C 5.488 24.298 4.498 24.395 4.088 23.972 C 3.678 23.548 4.832 21.46 4.832 21.46 C 4.832 21.46 8.401 14.951 9.396 13.97 C 9.528 13.84 9.955 13.525 10.587 13.059 L 10.587 13.059 C 11.978 12.032 14.361 10.273 16.791 8.133 C 17.94 7.12 19.968 5.219 21.173 3.697 C 21.341 3.485 21.48 3.261 21.612 3.046 C 21.957 2.488 22.259 2 22.908 2 C 24.123 2 23.966 3.428 23.881 4.196 C 23.875 4.251 23.869 4.302 23.864 4.349 C 23.793 5.06 22.433 8.387 22.433 8.387 C 22.433 8.387 22.244 9.113 22.234 9.479 C 29.937 10.075 36 16.446 36 24.217 C 36 32.381 29.307 39 21.051 39 C 14.301 39 8.596 34.576 6.739 28.501 C 6.693 28.303 6.656 28.108 6.631 27.923 C 6.44 26.502 6.44 25.518 6.917 25.694 C 7.054 25.744 7.263 26.247 7.543 26.921 C 7.802 27.543 8.121 28.312 8.501 29.007 C 9.141 30.177 10.083 31.106 10.19 31.05 C 10.269 31.008 10.05 30.666 9.762 30.215 L 9.762 30.215 C 9.577 29.925 9.363 29.591 9.181 29.262 C 8.792 28.56 8.527 27.829 8.877 27.736 C 9.168 27.659 9.686 28.311 10.309 29.094 L 10.309 29.094 C 10.593 29.452 10.899 29.837 11.215 30.192 C 12.033 31.112 13.004 31.775 13.143 31.704 C 13.259 31.645 13.028 31.297 12.742 30.865 C 12.601 30.653 12.447 30.42 12.314 30.192 L 12.291 30.152 C 11.976 29.611 11.718 29.17 11.983 29.007 C 12.319 28.801 13.03 29.486 13.624 30.059 C 14.061 30.48 14.434 30.841 14.55 30.742 C 14.66 30.648 14.589 30.42 14.512 30.175 C 14.4 29.814 14.276 29.417 14.702 29.358 C 14.848 29.338 15.081 29.468 15.437 29.667 C 15.666 29.795 15.946 29.951 16.286 30.114 C 17.324 30.892 18.617 31.354 20.02 31.354 C 23.436 31.354 26.206 28.615 26.206 25.236 C 26.206 22.693 24.636 20.513 22.403 19.59 C 22.234 19.946 22.023 20.266 21.775 20.419 C 21.243 20.747 21.158 20.762 20.687 20.84 Z M 12.379 16.458 C 11.666 17.143 10.483 18.78 10.483 18.78 C 10.483 18.78 12.681 18.917 13.892 17.753 C 15.103 16.589 14.826 14.606 14.826 14.606 C 14.826 14.606 13.092 15.772 12.379 16.458 Z" fill="rgb(12, 106, 200)"></path></svg>