<svg xmlns="http://www.w3.org/2000/svg" width="40" height="40" fill="none"><path d="M 12.717 1.043 C 12.713 1.033 12.715 1.022 12.721 1.014 C 12.727 1.005 12.737 1 12.748 1 L 26.26 1 C 26.275 1 26.288 1.009 26.292 1.023 L 32.499 20.896 C 32.502 20.906 32.5 20.916 32.494 20.925 C 32.487 20.933 32.477 20.938 32.467 20.938 L 23.471 20.938 C 23.466 20.938 23.461 20.94 23.458 20.945 C 23.455 20.949 23.454 20.954 23.455 20.959 L 28.615 38.958 C 28.625 38.993 28.578 39.016 28.556 38.987 L 8.507 12.562 C 8.499 12.552 8.498 12.539 8.503 12.528 C 8.509 12.517 8.521 12.51 8.533 12.51 L 16.697 12.51 C 16.703 12.51 16.708 12.507 16.711 12.503 C 16.714 12.499 16.715 12.493 16.713 12.488 Z" fill="rgb(242, 217, 78)"></path></svg>