<svg xmlns="http://www.w3.org/2000/svg" width="40" height="40" fill="none"><path d="M 8.007 31.713 C 8.002 31.708 8 31.701 8.002 31.694 L 9.863 25.405 L 0.01 20.017 C 0.004 20.013 0 20.007 0 20 C 0 19.993 0.004 19.987 0.01 19.983 L 9.944 14.55 L 8.002 7.987 C 8 7.98 8.002 7.973 8.007 7.968 C 8.012 7.963 8.019 7.961 8.026 7.963 L 14.592 9.867 L 19.983 0.01 C 19.987 0.004 19.993 0 20 0 C 20.007 0 20.013 0.004 20.017 0.01 L 25.408 9.867 L 31.974 7.963 C 31.981 7.961 31.988 7.963 31.993 7.968 C 31.998 7.973 32 7.98 31.998 7.987 L 30.056 14.55 L 39.99 19.983 C 39.996 19.987 40 19.993 40 20 C 40 20.007 39.996 20.013 39.99 20.017 L 30.137 25.405 L 31.998 31.694 C 32 31.701 31.998 31.708 31.993 31.713 C 31.988 31.718 31.981 31.72 31.974 31.718 L 25.558 29.858 L 20.017 39.99 C 20.013 39.996 20.007 40 20 40 C 19.993 40 19.987 39.996 19.983 39.99 L 14.442 29.858 L 8.026 31.718 C 8.019 31.72 8.012 31.718 8.007 31.713 Z M 13.005 20.069 L 17.55 22.555 L 20.036 27.1 C 20.039 27.106 20.046 27.11 20.052 27.11 C 20.059 27.11 20.066 27.106 20.069 27.1 L 22.555 22.555 L 27.1 20.069 C 27.106 20.066 27.11 20.059 27.11 20.052 C 27.11 20.046 27.106 20.039 27.1 20.036 L 22.555 17.55 L 20.069 13.005 C 20.066 12.998 20.059 12.995 20.052 12.995 C 20.046 12.995 20.039 12.998 20.036 13.005 L 17.55 17.55 L 13.005 20.036 C 12.998 20.039 12.995 20.046 12.995 20.052 C 12.995 20.059 12.998 20.066 13.005 20.069 Z" fill="rgb(239, 144, 230)"></path></svg>