<svg xmlns="http://www.w3.org/2000/svg" width="40" height="40" fill="none"><path d="M 8.919 5.91 C 9.347 4.237 10.878 3 12.7 3 C 14.067 3 15.27 3.696 15.966 4.75 L 17.106 4.75 C 17.815 4.03 18.805 3.583 19.9 3.583 C 21.506 3.583 22.885 4.544 23.483 5.917 L 24.438 5.917 C 25.036 5.547 25.743 5.333 26.5 5.333 C 28.106 5.333 29.485 6.294 30.083 7.667 L 32.679 7.667 C 32.701 7.667 32.722 7.673 32.74 7.683 C 32.86 7.672 32.98 7.667 33.1 7.667 C 35.254 7.667 37 9.395 37 11.527 L 37 23.104 L 37 23.125 L 37 23.146 L 37 23.313 C 37 23.384 36.998 23.454 36.994 23.524 C 36.759 31.555 29.465 38 20.5 38 C 11.387 38 4 31.34 4 23.125 C 4 19.16 5.721 15.556 8.527 12.89 C 8.52 16.756 8.586 20.753 8.89 20.684 C 9.704 20.5 9.068 8.526 8.919 5.91 Z" fill="rgb(211, 66, 95)"></path></svg>