<svg xmlns="http://www.w3.org/2000/svg" width="40" height="40" fill="none"><path d="M 27.54 30.89 C 28.035 29.083 27.075 25.368 27.075 25.368 C 27.075 25.368 26.378 28.394 25.29 29.513 C 24.362 30.467 23.225 31.129 21.593 31.303 C 22.927 30.656 23.844 29.306 23.844 27.746 C 23.844 25.557 22.037 23.782 19.808 23.782 C 17.578 23.782 15.771 25.557 15.771 27.746 C 15.77 28.325 15.899 28.897 16.147 29.42 C 14.753 28.31 14.534 26.531 14.534 26.531 C 14.534 26.531 12.977 32.989 17.267 36.028 C 21.557 39.066 29.961 36.454 29.961 36.454 C 29.961 36.454 17.934 44.909 9.022 35.707 C 1.345 27.78 7.018 17.344 7.018 17.344 C 7.018 17.344 6.773 18.312 6.773 19.436 C 6.773 20.56 7.383 21.415 7.383 21.415 C 7.383 21.415 9.202 17.584 10.618 16.026 C 11.958 14.551 13.638 13.355 15.089 12.322 C 16.205 11.527 17.187 10.828 17.773 10.174 C 21 6.568 19.021 0 19.021 0 C 19.021 0 22.66 3.205 23.675 7.344 C 24.063 8.921 23.813 10.716 23.591 12.322 C 23.229 14.928 22.937 17.033 25.549 16.897 C 29.77 16.676 26.102 10.174 26.102 10.174 C 26.102 10.174 35.677 15.202 34.962 23.996 C 34.246 32.79 24.496 34.789 24.496 34.789 C 24.496 34.789 27.045 32.697 27.54 30.89 Z" fill="rgb(251, 166, 76)"></path></svg>