<svg xmlns="http://www.w3.org/2000/svg" width="40" height="40" fill="none"><path d="M 14.613 37 C 20.326 37 25.217 33.806 27.236 29.278 C 27.261 29.223 19.129 31.404 19.389 30.633 C 19.505 30.289 24.489 28.457 28.121 26.32 C 30.208 25.092 31.169 22.493 31.169 22.493 C 31.169 22.493 27.653 24.21 25.875 24.646 C 22.293 25.524 19.139 25.43 19.139 25.338 C 19.139 25.14 24.375 24.139 31.653 19.678 C 35.077 17.58 36.007 13.965 36.007 13.965 C 36.007 13.965 32.243 16.22 29.968 16.965 C 24.572 18.73 19.648 19.262 19.648 19.023 C 19.648 18.512 23.981 17.313 28.575 15.074 C 30.964 13.91 33.033 12.389 35.43 10.697 C 39.353 7.929 40 3 40 3 C 40 3 36.131 5.51 34.243 6.344 C 26.452 9.783 19.573 11.588 14.613 11.978 C 7.125 12.568 1 17.823 1 24.646 C 1 31.469 7.095 37 14.613 37 Z" fill="rgb(161, 187, 236)"></path></svg>