<svg xmlns="http://www.w3.org/2000/svg" width="40" height="40" fill="none"><path d="M 27.942 37.875 C 24.695 38.042 20.977 38.042 19.714 37.875 C 9.859 36.579 2 29.374 2 19.634 C 2 9.895 10.059 2 20 2 C 29.941 2 38 9.895 38 19.634 C 38 24.164 36.257 28.295 33.392 31.418 C 32.614 32.266 33.681 32.861 34.766 33.465 C 35.829 34.058 36.91 34.66 36.282 35.519 C 35.59 36.465 31.84 37.676 27.942 37.875 Z M 17.469 17.43 L 15.73 17.43 C 14.391 17.43 13.3 16.369 13.252 15.042 C 12.41 15.519 11.844 16.409 11.844 17.43 C 11.844 18.952 13.103 20.185 14.656 20.185 C 16.21 20.185 17.469 18.952 17.469 17.43 Z M 26.186 15.042 C 26.137 16.369 25.046 17.43 23.708 17.43 L 21.969 17.43 L 21.969 17.43 C 21.969 18.952 23.228 20.185 24.781 20.185 C 26.335 20.185 27.594 18.952 27.594 17.43 C 27.594 16.409 27.027 15.519 26.186 15.042 Z" fill="rgb(95, 109, 188)"></path></svg>