<svg xmlns="http://www.w3.org/2000/svg" width="40" height="40" fill="none"><path d="M 8.458 33.777 C 8.326 33.652 8.197 33.526 8.069 33.397 C 1.31 26.594 1.31 15.563 8.069 8.759 C 14.828 1.955 36.364 1.5 36.364 1.5 C 36.364 1.5 39.303 26.594 32.545 33.397 C 26.542 39.44 17.227 40.116 10.483 35.425 L 15.917 28.713 L 24.604 26.825 L 17.513 26.111 L 22.019 21.492 L 27.149 20.361 L 23.093 19.152 L 27.149 11.786 L 21.379 18.301 L 19.151 15.136 L 19.936 20.361 L 15.917 24.921 L 14.054 19.152 L 14.054 26.825 Z" fill="rgb(96, 190, 88)"></path></svg>