<svg xmlns="http://www.w3.org/2000/svg" width="40" height="40" fill="none"><path d="M 8.81 33.887 C 8.805 33.887 8.8 33.885 8.797 33.88 C 8.794 33.876 8.793 33.871 8.795 33.866 L 19.007 5.01 C 19.009 5.004 19.015 5 19.022 5 L 29.924 5 C 29.93 5 29.936 5.004 29.938 5.011 L 39.999 33.866 C 40.001 33.871 40 33.876 39.997 33.881 C 39.994 33.885 39.989 33.887 39.984 33.887 Z M 0.016 34 C 0.011 34 0.006 33.998 0.003 33.993 C 0 33.989 -0.001 33.984 0.001 33.979 L 7.606 13.676 C 7.608 13.67 7.614 13.666 7.62 13.666 L 14.228 13.666 C 14.239 13.666 14.247 13.677 14.243 13.687 L 6.889 33.99 C 6.887 33.996 6.881 34 6.874 34 Z" fill="rgb(218, 124, 77)"></path></svg>