<svg xmlns="http://www.w3.org/2000/svg" width="40" height="40" fill="none"><path d="M 33.684 32.939 C 33.684 36.839 31.328 40 28.421 40 C 26.699 40 25.171 38.891 24.211 37.176 C 23.25 38.891 21.722 40 20 40 C 18.111 40 16.455 38.665 15.526 36.66 C 14.598 38.665 12.941 40 11.053 40 C 8.146 40 5.789 36.839 5.789 32.939 C 5.789 32.038 5.915 31.175 6.145 30.383 C 2.357 27.171 0 22.655 0 17.652 C 0 7.903 8.954 0 20 0 C 31.046 0 40 7.903 40 17.652 C 40 22.842 37.463 27.508 33.424 30.738 C 33.593 31.431 33.684 32.171 33.684 32.939 Z M 19.737 9.04 C 13.197 9.04 7.895 13.053 7.895 18.002 C 7.895 22.952 13.197 26.964 19.737 26.964 C 26.277 26.964 31.579 22.952 31.579 18.002 C 31.579 13.053 26.277 9.04 19.737 9.04 Z" fill="rgb(183, 99, 207)"></path></svg>