<svg xmlns="http://www.w3.org/2000/svg" width="40" height="40" fill="none"><path d="M 35.239 32.56 C 35.239 32.56 30.486 36.403 21.028 34.813 C 13.853 33.606 10.026 25.631 10.026 21.344 C 10.026 11.18 17.487 8.867 22.531 8.867 C 27.575 8.867 30.865 13.826 30.865 17.665 C 30.865 21.504 28.172 24.861 23.981 24.861 C 19.791 24.861 18.55 21.895 18.55 19.168 C 18.55 16.44 20.738 15.479 22.734 15.479 C 24.73 15.479 25.413 17.198 25.413 18.674 C 25.413 20.151 24.277 20.68 23.329 20.68 C 22.381 20.68 22.288 20.197 21.925 19.691 C 21.562 19.184 22.387 17.267 21.028 17.267 C 19.669 17.267 19.416 19.471 19.416 19.471 C 19.416 19.471 19.912 23.727 23.981 23.653 C 28.051 23.58 29.982 20.407 29.421 17.267 C 28.86 14.126 25.837 10.788 20.531 11.462 C 15.225 12.137 13.058 17.542 14.013 23.319 C 14.968 29.096 21.832 32.443 27.228 31.238 C 32.625 30.034 38 26.095 38 16.108 C 38 6.12 29.421 0.117 19.192 1.106 C 8.962 2.096 2.612 11.113 3.018 21.947 C 3.425 32.782 13.621 38.683 22.243 38.987 C 30.865 39.291 36.151 34.259 36.151 34.259 C 36.151 34.259 37.34 33.19 36.874 32.355 C 36.408 31.521 35.239 32.56 35.239 32.56 Z" fill="rgb(250, 133, 130)"></path></svg>