<svg xmlns="http://www.w3.org/2000/svg" width="40" height="40" fill="none"><path d="M 30.884 18.669 C 30.882 18.666 30.881 18.662 30.882 18.659 L 33.428 4.012 C 33.43 4.005 33.436 4 33.442 4 L 34.248 4 C 34.255 4 34.26 4.004 34.262 4.01 L 39.999 21.928 C 40.001 21.933 39.999 21.939 39.995 21.943 L 35.764 25.201 C 35.761 25.203 35.757 25.204 35.754 25.204 C 35.75 25.203 35.746 25.201 35.744 25.198 Z M 0 19.598 C 0 19.594 0.001 19.591 0.003 19.589 L 13.041 4.076 C 13.043 4.072 13.047 4.071 13.052 4.071 L 30.316 4.071 C 30.32 4.071 30.324 4.072 30.327 4.075 C 30.33 4.079 30.331 4.083 30.33 4.087 L 28.24 17.92 C 28.24 17.924 28.237 17.928 28.234 17.93 L 8.743 31.203 C 8.739 31.205 8.734 31.206 8.73 31.205 L 0.01 28.392 C 0.004 28.39 0 28.385 0 28.379 Z M 28.977 20.709 C 28.98 20.707 28.984 20.706 28.988 20.707 C 28.991 20.707 28.995 20.709 28.997 20.713 L 33.249 26.953 C 33.253 26.96 33.251 26.968 33.245 26.973 L 21.903 34.997 C 21.899 35 21.895 35.001 21.89 34.999 L 12.364 31.921 Z" fill="rgb(201, 188, 138)"></path></svg>