<svg xmlns="http://www.w3.org/2000/svg" width="40" height="40" fill="none"><path d="M 0.004 20.024 C -0.001 20.015 -0.001 20.004 0.004 19.995 L 10.062 3.014 C 10.067 3.005 10.077 3 10.087 3 L 30.023 3 C 30.033 3 30.043 3.005 30.048 3.014 L 39.996 19.995 C 40.001 20.004 40.001 20.015 39.996 20.024 L 30.048 36.986 C 30.043 36.995 30.033 37 30.023 37 L 10.087 37 C 10.077 37 10.067 36.995 10.062 36.986 Z M 20.003 10.846 C 14.887 10.846 10.739 14.944 10.739 20 C 10.739 25.055 14.887 29.154 20.003 29.154 C 25.119 29.154 29.267 25.055 29.267 20 C 29.267 14.944 25.119 10.846 20.003 10.846 Z" fill="rgb(87, 149, 163)"></path></svg>