<svg xmlns="http://www.w3.org/2000/svg" width="40" height="40" fill="none"><path d="M 33 27.073 C 33 34.212 27.18 40 20 40 C 12.82 40 7 34.212 7 27.073 C 7 20.129 19.297 1.058 19.971 0.018 C 19.987 -0.006 20.013 -0.006 20.029 0.018 C 20.703 1.058 33 20.129 33 27.073 Z M 28.192 32.285 C 28.192 32.285 22.909 34.376 18.538 32.95 C 14.166 31.524 12.365 27.121 12.365 27.121 C 12.365 27.121 11.236 34.415 17.833 35.856 C 24.43 37.296 28.192 32.285 28.192 32.285 Z" fill="rgb(83, 157, 223)"></path></svg>